<svg width="47" height="46" viewBox="0 0 47 46" fill="none" xmlns="http://www.w3.org/2000/svg">
<path d="M0.854492 10C0.854492 4.47715 5.33165 0 10.8545 0H36.8545C42.3773 0 46.8545 4.47715 46.8545 10V36C46.8545 41.5228 42.3773 46 36.8545 46H10.8545C5.33165 46 0.854492 41.5228 0.854492 36V10Z" fill="white" fill-opacity="0.1"/>
<path d="M28.366 13.4999C28.5208 13.6573 28.6437 13.8443 28.7275 14.0501C28.8113 14.256 28.8545 14.4767 28.8545 14.6995C28.8545 14.9224 28.8113 15.1431 28.7275 15.3489C28.6437 15.5548 28.5208 15.7417 28.366 15.8992L21.8845 22.5015L28.366 29.1038C28.6783 29.422 28.8538 29.8535 28.8538 30.3034C28.8538 30.7534 28.6783 31.1849 28.366 31.5031C28.0536 31.8213 27.63 32 27.1883 32C26.7465 32 26.3229 31.8213 26.0106 31.5031L18.343 23.6926C18.1882 23.5352 18.0653 23.3482 17.9815 23.1424C17.8976 22.9365 17.8545 22.7158 17.8545 22.493C17.8545 22.2701 17.8976 22.0494 17.9815 21.8436C18.0653 21.6377 18.1882 21.4508 18.343 21.2933L26.0106 13.4829C26.6454 12.8362 27.7145 12.8362 28.366 13.4999Z" fill="white"/>
</svg>
