<svg width="393" height="852" viewBox="0 0 393 852" fill="none" xmlns="http://www.w3.org/2000/svg">
<rect width="393" height="852" fill="url(#paint0_linear_14_25)"/>
<path d="M126.023 371.083C142.44 298.917 249.356 299 265.69 371.167C275.273 413.5 248.94 449.333 225.856 471.5C217.789 479.278 207.02 483.623 195.815 483.623C184.609 483.623 173.84 479.278 165.773 471.5C142.773 449.333 116.44 413.417 126.023 371.083Z" fill="white"/>
<path d="M126.023 371.083C142.44 298.917 249.356 299 265.69 371.167C275.273 413.5 248.94 449.333 225.856 471.5C217.789 479.278 207.02 483.623 195.815 483.623C184.609 483.623 173.84 479.278 165.773 471.5C142.773 449.333 116.44 413.417 126.023 371.083Z" fill="white"/>
<path d="M164.992 406.976H181.396V444.343C181.396 449.844 188.403 452.439 192.119 448.287L232.305 403.655C235.809 399.762 232.995 393.69 227.686 393.69H211.283V356.324C211.283 350.822 204.276 348.228 200.56 352.379L160.374 397.012C156.923 400.904 159.737 406.976 164.992 406.976Z" fill="url(#paint1_linear_14_25)"/>
<path d="M142.402 559V536.664H157.602V540.984H147.266V545.56H156.13V549.848H147.266V554.68H157.602V559H142.402ZM175.599 559L173.999 553.688H166.543L164.943 559H160.015L167.375 536.664H173.391L180.655 559H175.599ZM170.319 541.08H170.159L167.695 549.56H172.815L170.319 541.08ZM190.977 559.384C189.015 559.384 187.351 559.053 185.985 558.392C184.62 557.709 183.457 556.835 182.497 555.768L185.697 552.536C187.212 554.243 189.079 555.096 191.297 555.096C192.492 555.096 193.377 554.851 193.953 554.36C194.529 553.869 194.817 553.219 194.817 552.408C194.817 551.789 194.647 551.277 194.305 550.872C193.964 550.445 193.271 550.157 192.225 550.008L190.017 549.72C187.649 549.421 185.911 548.707 184.801 547.576C183.713 546.445 183.169 544.941 183.169 543.064C183.169 542.061 183.361 541.144 183.745 540.312C184.129 539.48 184.673 538.765 185.377 538.168C186.103 537.571 186.977 537.112 188.001 536.792C189.047 536.451 190.231 536.28 191.553 536.28C193.239 536.28 194.721 536.547 196.001 537.08C197.281 537.613 198.38 538.392 199.297 539.416L196.065 542.68C195.532 542.061 194.881 541.56 194.113 541.176C193.367 540.771 192.417 540.568 191.265 540.568C190.177 540.568 189.367 540.76 188.833 541.144C188.3 541.528 188.033 542.061 188.033 542.744C188.033 543.512 188.236 544.067 188.641 544.408C189.068 544.749 189.751 544.995 190.689 545.144L192.897 545.496C195.201 545.859 196.908 546.573 198.017 547.64C199.127 548.685 199.681 550.179 199.681 552.12C199.681 553.187 199.489 554.168 199.105 555.064C198.721 555.96 198.156 556.728 197.409 557.368C196.684 558.008 195.777 558.509 194.689 558.872C193.601 559.213 192.364 559.384 190.977 559.384ZM207.905 559V550.264L200.257 536.664H205.697L210.497 545.56H210.561L215.169 536.664H220.449L212.801 550.232V559H207.905ZM220.852 551.544V546.936H230.356V551.544H220.852ZM238.898 559L231.698 536.664H236.626L239.954 547.384L241.714 554.392H241.81L243.506 547.384L246.834 536.664H251.602L244.338 559H238.898Z" fill="white"/>
<defs>
<linearGradient id="paint0_linear_14_25" x1="-3.36124e-06" y1="142" x2="893.847" y2="318.095" gradientUnits="userSpaceOnUse">
<stop stop-color="#09B0D9"/>
<stop offset="0.510115" stop-color="#0EBED0"/>
<stop offset="1" stop-color="#17D7C1"/>
</linearGradient>
<linearGradient id="paint1_linear_14_25" x1="158.856" y1="367" x2="319.568" y2="418.48" gradientUnits="userSpaceOnUse">
<stop stop-color="#09B0D9"/>
<stop offset="0.510115" stop-color="#0EBED0"/>
<stop offset="1" stop-color="#17D7C1"/>
</linearGradient>
</defs>
</svg>
